<svg width="24" height="24" viewBox="0 0 24 24" fill="none" xmlns="http://www.w3.org/2000/svg">
<path fill-rule="evenodd" clip-rule="evenodd" d="M19.5 12C19.5 16.1421 16.1421 19.5 12 19.5C7.85786 19.5 4.5 16.1421 4.5 12C4.5 7.85786 7.85786 4.5 12 4.5C16.1421 4.5 19.5 7.85786 19.5 12ZM21 12C21 16.9706 16.9706 21 12 21C7.02944 21 3 16.9706 3 12C3 7.02944 7.02944 3 12 3C16.9706 3 21 7.02944 21 12ZM13.134 8.267C13.134 8.839 12.705 9.257 12.067 9.257C11.429 9.257 11 8.839 11 8.3C11 7.761 11.429 7.343 12.067 7.343C12.705 7.343 13.134 7.739 13.134 8.267ZM12.925 16H11.209V10.082H12.925V16Z" fill="white"/>
</svg>
