<svg width="88" height="29" viewBox="0 0 88 29" fill="none" xmlns="http://www.w3.org/2000/svg">
<path d="M0 28.9909H7.14833V18.6423H19.7595V13.0281H7.14833V6.53019H20.8415V0.995972H0V28.9909Z" fill="white"/>
<path d="M46.7304 9.14543L42.5887 14.9955L32.6799 28.9909H40.9643L46.7314 20.8456L50.8731 14.9955L60.7819 1H52.4965L46.7304 9.14543Z" fill="white"/>
<path d="M82.0967 19.8079C85.3896 18.1634 87.2013 15.0754 87.2013 10.7848C87.2013 4.52882 82.9445 1 75.5149 1H69.0632L62.9458 9.64026V28.9909H70.0941V21.0935H75.716L79.8928 28.9909H88L82.0967 19.8079ZM75.5109 15.5573H70.0891V6.61414H75.5109C78.6026 6.61414 80.4153 8.09775 80.4153 11.0258C80.4103 13.9928 78.6026 15.5573 75.5109 15.5573Z" fill="white"/>
<path d="M42.5907 3.29527L40.9662 0.995972H32.6819L38.448 9.14237L42.5907 3.29527Z" fill="white"/>
<path d="M50.8721 26.6967L52.4955 28.996H60.7798L55.0137 20.8506L50.8721 26.6967Z" fill="white"/>
<path d="M24.3987 28.9909L31.547 18.8942V1H24.3987V28.9909Z" fill="white"/>
</svg>
